<svg xmlns="http://www.w3.org/2000/svg" viewBox="0 0 24 24" fill="none"><path stroke="currentcolor" stroke-linecap="round" stroke-width="1.75" d="M10.5 18.454H4.2a1 1 0 0 1-1-1V3.025a1 1 0 0 1 1-1H16.28a1 1 0 0 1 1 1V10M6.72 6.72h2.326M6.72 10.24h2.326M6.72 13.76h.78"/><g clip-path="url(#a)"><path fill="currentcolor" d="M19.916 17h-5.833 5.833ZM17 19.916v-5.833 5.833Z"/><path stroke="currentcolor" stroke-linecap="square" stroke-width="1.75" d="M19.916 17h-5.833M17 19.916v-5.833M17 22.834a5.833 5.833 0 1 0 0-11.667 5.833 5.833 0 0 0 0 11.667Z"/></g><defs><clipPath id="a"><path fill="#fff" d="M10 10h14v14H10z"/></clipPath></defs></svg>