  <svg xmlns="http://www.w3.org/2000/svg" viewBox="0 0 24 24">
    <path d="M7 5.5a1.5 1.5 0 1 1 3 0 1.5 1.5 0 0 1-3 0ZM8.5 5a.5.5 0 1 0 0 1 .5.5 0 0 0 0-1Zm5.5.5a1.5 1.5 0 1 1 3 0 1.5 1.5 0 0 1-3 0Zm1.5-.5a.5.5 0 1 0 0 1 .5.5 0 0 0 0-1ZM7 11.5a1.5 1.5 0 1 1 3 0 1.5 1.5 0 0 1-3 0Zm1.5-.5a.5.5 0 1 0 0 1 .5.5 0 0 0 0-1Zm5.5.5a1.5 1.5 0 1 1 3 0 1.5 1.5 0 0 1-3 0Zm1.5-.5a.5.5 0 1 0 0 1 .5.5 0 0 0 0-1ZM7 17.5a1.5 1.5 0 1 1 3 0 1.5 1.5 0 0 1-3 0Zm1.5-.5a.5.5 0 1 0 0 1 .5.5 0 0 0 0-1Zm5.5.5a1.5 1.5 0 1 1 3 0 1.5 1.5 0 0 1-3 0Zm1.5-.5a.5.5 0 1 0 0 1 .5.5 0 0 0 0-1Z" />
    <path d="M8 5h1v1H8zM15 5h1v1h-1zM8 11h1v1H8zM15 11h1v1h-1zM8 17h1v1H8zM15 17h1v1h-1z" />
  </svg>