<svg xmlns="http://www.w3.org/2000/svg" viewBox="0 0 24 24" fill="none"><path stroke="currentColor" d="M19.5 10.5h-15V21h15V10.5Zm1.5 0H3v-3h18v3Z"/><path fill="currentColor" d="M11.9996 7.49857v.75l.75-.00001v-.74999h-.75Zm0-.75c-2.09149.00006-2.89899-.68715-3.18808-1.20732-.15579-.28033-.20072-.57309-.17816-.82117.02433-.2676.11775-.41078.14661-.43964L7.71926 3.21982c-.34602.34605-.53377.8589-.57973 1.36445-.04775.52507.04794 1.12257.36087 1.68564.64836 1.16664 2.09073 1.97874 4.4992 1.97866v-1.5ZM8.77997 4.28044c.22854-.22857.43004-.27331.60575-.25383.20434.02265.4771.14693.77118.44088.5903.59013 1.0927 1.70192 1.0927 3.03108h1.5c0-1.67013-.6226-3.18264-1.5322-4.09194-.456-.45576-1.027-.79999-1.66638-.87088-.66804-.07407-1.3103.16257-1.83176.68407l1.06071 1.06062Z"/><path fill="currentColor" d="M12 7.49857v.75l-.75-.00001v-.74999H12Zm0-.75c2.0915.00006 2.899-.68715 3.1881-1.20732.1558-.28033.2007-.57309.1782-.82117-.0243-.2676-.1177-.41078-.1467-.43964l1.0608-1.06062c.3459.34605.5337.8589.5798 1.36445.0477.52507-.048 1.12257-.3609 1.68564C15.8508 7.43655 14.4085 8.24865 12 8.24857v-1.5Zm3.2196-2.46813c-.2285-.22857-.43-.27331-.6057-.25383-.2043.02265-.4771.14693-.7712.44088-.5903.59013-1.0927 1.70192-1.0927 3.03108h-1.5c0-1.67013.6226-3.18264 1.5323-4.09194.4559-.45576 1.0269-.79999 1.6663-.87088.6681-.07407 1.3102.16257 1.8318.68407l-1.0608 1.06062Z"/><path stroke="currentColor" d="M10.5 7.5V21m3-13.5V21"/></svg>
