<svg xmlns="http://www.w3.org/2000/svg" viewBox="0 0 24 24">
  <path d="M12 7.4c-.9 0-1.8.3-2.6.8s-1.3 1.2-1.7 2.1c-.3.8-.4 1.8-.3 2.7a4.74 4.74 0 003.7 3.7c.9.2 1.8.1 2.7-.3a4.7 4.7 0 002.9-4.3c0-.6-.1-1.2-.4-1.8-.2-.6-.6-1.1-1-1.5-.4-.4-.9-.8-1.5-1-.6-.3-1.2-.4-1.8-.4zm0 7.6c-.6 0-1.2-.2-1.7-.5a2.76 2.76 0 01-1.2-3.1c.1-.6.4-1.1.8-1.5.4-.4 1-.7 1.5-.8.6-.2 1.2-.1 1.7.1s1 .6 1.3 1.1c.3.5.5 1.1.5 1.7 0 .8-.3 1.6-.9 2.1-.4.6-1.2.9-2 .9zm5.9-7.8c0 .2-.1.4-.2.6-.1.2-.3.3-.5.4s-.4.1-.6.1c-.2 0-.4-.1-.6-.3-.2-.2-.3-.3-.3-.6 0-.2 0-.4.1-.6.1-.2.2-.4.4-.5.2-.1.4-.2.6-.2.1 0 .3 0 .4.1.1.1.2.1.3.2.1.1.2.2.2.3.1.2.2.4.2.5zm3 1.1c0-1.4-.5-2.8-1.5-3.8S17 3 15.6 3s-5.8 0-7.3.1c-1.4-.1-2.8.5-3.8 1.4-1 1-1.5 2.4-1.5 3.8 0 1.5 0 5.9.1 7.4 0 1.4.5 2.8 1.5 3.8S7 21 8.4 21c1.5.1 5.9.1 7.4 0 1.4 0 2.8-.5 3.8-1.5s1.5-2.4 1.5-3.8c-.1-1.5-.1-5.9-.2-7.4zm-1.9 9a3.6 3.6 0 01-1.7 1.7c-1.2.5-4 .4-5.3.4-1.3 0-4.1.1-5.3-.4A3.6 3.6 0 015 17.3c-.5-1.2-.4-4-.4-5.3 0-1.3-.1-4.1.4-5.3.2-.4.4-.7.7-1 .3-.3.6-.6 1-.7 1.2-.5 4-.4 5.3-.4 1.3 0 4.1-.1 5.3.4A3.6 3.6 0 0119 6.7c.5 1.2.4 4 .4 5.3 0 1.3.1 4.1-.4 5.3z" fill="currentColor" stroke-width="0"/>
</svg>
