<svg xmlns="http://www.w3.org/2000/svg" viewBox="0 0 32 32">
  <path d="M11 12.5a1.5 1.5 0 0 1 1.5-1.5h7a1.5 1.5 0 0 1 1.5 1.5v7a1.5 1.5 0 0 1-1.5 1.5h-7a1.5 1.5 0 0 1-1.5-1.5v-7Z"/>
  <path fill-rule="evenodd" d="M16 30c7.732 0 14-6.268 14-14S23.732 2 16 2 2 8.268 2 16s6.268 14 14 14Zm-3-17v6h6v-6h-6Zm-.5-4h7a3.5 3.5 0 0 1 3.5 3.5v7a3.5 3.5 0 0 1-3.5 3.5h-7A3.5 3.5 0 0 1 9 19.5v-7A3.5 3.5 0 0 1 12.5 9ZM16 32c8.837 0 16-7.163 16-16S24.837 0 16 0 0 7.163 0 16s7.163 16 16 16Z" clip-rule="evenodd"/>
</svg>