<svg width="32" height="32" viewBox="0 0 24 24" xmlns="http://www.w3.org/2000/svg">
<path d="M11 12.5C11 11.6716 11.6716 11 12.5 11H19.5C20.3284 11 21 11.6716 21 12.5V19.5C21 20.3284 20.3284 21 19.5 21H12.5C11.6716 21 11 20.3284 11 19.5V12.5Z" fill="#0F67F5"/>
<path fill-rule="evenodd" clip-rule="evenodd" d="M16 30C23.732 30 30 23.732 30 16C30 8.26801 23.732 2 16 2C8.26801 2 2 8.26801 2 16C2 23.732 8.26801 30 16 30ZM13 13V19H19V13H13ZM12.5 9H19.5C21.433 9 23 10.567 23 12.5V19.5C23 21.433 21.433 23 19.5 23H12.5C10.567 23 9 21.433 9 19.5V12.5C9 10.567 10.567 9 12.5 9ZM16 32C24.8366 32 32 24.8366 32 16C32 7.16344 24.8366 0 16 0C7.16344 0 0 7.16344 0 16C0 24.8366 7.16344 32 16 32Z" fill="#0F67F5"/>
</svg>
