<svg xmlns="http://www.w3.org/2000/svg" viewBox="0 0 24 24" >
  <path  d="M8.1 20.5c7.9 0 12.3-6.6 12.3-12.3v-.6c.8-.6 1.6-1.4 2.1-2.2-.8.3-1.6.6-2.5.7.9-.5 1.6-1.4 1.9-2.4-.8.5-1.8.9-2.7 1-.8-.7-1.9-1.2-3.2-1.2-2.4 0-4.3 1.9-4.3 4.3 0 .3 0 .7.1 1C8.3 8.6 5.1 6.9 3 4.3c-.4.6-.6 1.3-.6 2.1 0 1.5.8 2.8 1.9 3.6-.7 0-1.4-.2-2-.5v.1c0 2.1 1.5 3.8 3.5 4.2-.4.1-.7.2-1.1.2-.3 0-.5 0-.8-.1.5 1.7 2.1 3 4 3a8.38 8.38 0 01-5.4 1.8c-.3 0-.7 0-1-.1 1.9 1.2 4.2 1.9 6.6 1.9z" fill="currentColor" stroke-width="0"/>
</svg>
