<svg xmlns="http://www.w3.org/2000/svg" viewBox="0 0 24 24"><g stroke="currentColor" clip-path="url(#a)"><path d="m7.54 19.49-3.84.92.56-4.3a9.3 9.3 0 0 1-1-6.78 9.45 9.45 0 0 1 11.4-6.96 9.45 9.45 0 0 1 7.11 11.31 9.45 9.45 0 0 1-11.4 6.97 9.6 9.6 0 0 1-2.83-1.16Z"/><path d="m12.98 14.46 1.34-1.54 2.49 1.5-.5.56c-.33.38-.84.55-1.33.44a9.36 9.36 0 0 1-4.13-2.14 9.36 9.36 0 0 1-2.69-3.8c-.18-.47-.08-1 .25-1.38l.5-.57 1.82 2.26-1.34 1.54"/></g><defs><clipPath id="a"><path fill="#fff" d="M0 0h24v24H0z"/></clipPath></defs></svg>
