<svg width="16" height="16" fill="none" xmlns="http://www.w3.org/2000/svg"><path d="M7.67 14.28c-.101 0-.196-.01-.284-.028a.923.923 0 0 1-.264-.104l-4.345-2.38c-.176-.101-.318-.24-.425-.416a1.107 1.107 0 0 1-.16-.586V6.913L.282 5.873a.465.465 0 0 1-.217-.207A.625.625 0 0 1 0 5.383c0-.101.022-.196.066-.284a.465.465 0 0 1 .217-.208l6.839-3.74A1.027 1.027 0 0 1 7.67 1a1.027 1.027 0 0 1 .547.151l7.48 4.062a.65.65 0 0 1 .227.226c.05.088.076.183.076.284v5.081a.55.55 0 0 1-.567.567.55.55 0 0 1-.566-.567v-4.76l-1.72.869v3.853c0 .214-.053.41-.16.586a1.168 1.168 0 0 1-.425.415l-4.345 2.38a.923.923 0 0 1-.264.104 1.35 1.35 0 0 1-.284.029Zm0-5.648 5.95-3.25L7.67 2.19 1.756 5.383l5.912 3.249Zm0 4.533 4.344-2.399V7.593l-3.797 2.04a.923.923 0 0 1-.264.104 1.351 1.351 0 0 1-.557 0 .946.946 0 0 1-.255-.104L3.325 7.555v3.211l4.344 2.4Z" fill="#1F1F1F"/></svg>