<svg width="24" height="24" fill="none" xmlns="http://www.w3.org/2000/svg"><path d="M19.352 23.391H4.28V7.88a.5.5 0 0 1 .188-.392l7.034-5.6a.5.5 0 0 1 .623 0l7.038 5.6a.5.5 0 0 1 .19.392v15.511Z" stroke="#000" stroke-width="1.001" stroke-linecap="round"/><mask id="a" fill="#fff"><path d="M8.673 23.891v-6.21h6.286v6.21"/></mask><path d="M7.672 23.891a1 1 0 1 0 2.002 0H7.672Zm1.001-6.21V16.68h-1v1h1Zm6.286 0h1V16.68h-1v1Zm-1.001 6.21a1 1 0 1 0 2.002 0h-2.002Zm-4.284 0v-6.21H7.672v6.21h2.002Zm-1-5.21h6.285V16.68H8.673v2.002Zm5.284-1v6.21h2.002v-6.21h-2.002Z" fill="#000" mask="url(#a)"/><path d="M13.568 9.482a1.755 1.755 0 1 1-3.509 0 1.755 1.755 0 0 1 3.51 0Z" stroke="#000" stroke-width="1.001" stroke-linecap="round"/><mask id="b" fill="#fff"><path d="M3.78 23.892H1c-.552 0-1-.448-1-1.001v-9.833c0-.553.448-1.001 1-1.001h2.78"/></mask><path d="M3.78 24.893a1.001 1.001 0 0 0 0-2.002v2.002Zm0-11.836a1 1 0 1 0 0-2.001v2.002Zm0 9.834H1v2.002h2.78V22.89Zm-2.78 0v-9.833h-2v9.833h2Zm0-9.833h2.78v-2.002H1v2.002Zm0 0v-2.002a2.002 2.002 0 0 0-2 2.002h2Zm0 9.833h-2c0 1.105.895 2.002 2 2.002V22.89Z" fill="#000" mask="url(#b)"/><mask id="c" fill="#fff"><path d="M19.852 12.057H23a1 1 0 0 1 1.001 1v9.834a1 1 0 0 1-1 1h-3.148"/></mask><path d="M19.852 11.056a1.001 1.001 0 0 0 0 2.002v-2.002Zm0 11.835a1 1 0 0 0 0 2.002V22.89Zm0-9.833H23v-2.002h-3.146v2.002Zm3.147 0v9.833h2.002v-9.833h-2.002Zm0 9.833h-3.146v2.002h3.146V22.89Zm0 0v2.002a2.002 2.002 0 0 0 2.002-2.002h-2.002Zm0-9.833h2.002a2.002 2.002 0 0 0-2.002-2.002v2.002Z" fill="#000" mask="url(#c)"/></svg>