<svg viewBox="0 0 24 24" xmlns="http://www.w3.org/2000/svg">
  <path d="M22 8V7a1 1 0 0 0-.1-.5l-2-4A1 1 0 0 0 19 2H5a1 1 0 0 0-.9.6l-2 4L2 7v1a4 4 0 0 0 2 3.5V20H3a1 1 0 0 0 0 2h18a1 1 0 0 0 0-2h-1v-8.5A4 4 0 0 0 22 8ZM5.6 4h12.8l1 2H4.6l1-2ZM14 8a2 2 0 0 1-4 0h4ZM4 8h4a2 2 0 0 1-4 0Zm6 12v-3c0-.6.4-1 1-1h2c.6 0 1 .4 1 1v3h-4Zm8 0h-2v-3a3 3 0 0 0-3-3h-2a3 3 0 0 0-3 3v3H6v-8a4 4 0 0 0 3-1.4 4 4 0 0 0 6 0 4 4 0 0 0 3 1.4v8Zm0-10a2 2 0 0 1-2-2h4a2 2 0 0 1-2 2Z" fill="currentColor" stroke-width="0"/>
</svg>