<svg width="24" height="24" fill="none" xmlns="http://www.w3.org/2000/svg"><g clip-path="url(#a)"><path d="M23.5 0h-20a.5.5 0 0 0-.5.5v5.265a4.5 4.5 0 1 0 1-.235V1h19v15h-7.28a2.19 2.19 0 0 0-.12-.2 2.001 2.001 0 0 0-2.8-.4l-3.06 2.295-3.43-1.5a1.91 1.91 0 0 0-.75-.165H.5a.5.5 0 0 0-.5.5v6.97a.5.5 0 0 0 .5.5h7a.5.5 0 0 0 .5-.5v-2.2l1.19.53c.66.28 1.42.192 2-.23l4-3a2 2 0 0 0 .81-1.315c.005-.095.005-.19 0-.285h7.5a.5.5 0 0 0 .5-.5V.5a.5.5 0 0 0-.5-.5ZM8 10a3.5 3.5 0 1 1-7.002 0 3.5 3.5 0 0 1 7.001 0Zm6.6 7.8-4 3a.998.998 0 0 1-1 .115l-1.89-.84a.5.5 0 0 0-.706.455V23H1v-6h4.5c.14 0 .277.027.405.08L9.6 18.725a.5.5 0 0 0 .5-.06l3.3-2.465a1 1 0 1 1 1.2 1.6Z" fill="#1F1F1F"/></g><defs><clipPath id="a"><path fill="#fff" d="M0 0h24v24H0z"/></clipPath></defs></svg>