<svg width="24" height="24" fill="none" xmlns="http://www.w3.org/2000/svg"><circle cx="4.78" cy="9.98" r="2.78" stroke="#0F67F5" stroke-width="2"/><path d="M4.5 6.8V3a1 1 0 0 1 1-1H21a1 1 0 0 1 1 1v11.6a1 1 0 0 1-1 1h-6m-13 .8V21a1 1 0 0 0 1 1h3.833a1 1 0 0 0 1-1v-.03a1 1 0 0 1 1.305-.953l1.047.335c.098.032.201.05.304.036.34-.048.945-.245 1.511-.788l2.5-2.4c1.076-1.033-.856-3.117-1.667-2.4l-2.851 2.053a1 1 0 0 1-1.017.09l-2.593-1.245a1 1 0 0 0-.433-.098H2.8a.8.8 0 0 0-.8.8Z" stroke="#0F67F5" stroke-width="2"/></svg>
