<svg width="752pt" height="752pt" viewBox="0 0 752 752" xmlns="http://www.w3.org/2000/svg"><defs><clipPath id="a"><path d="M139.21 139.21h473.58v473.58H139.21z"/></clipPath></defs><g clip-path="url(#a)"><path d="M602.93 139.21H208.28c-5.4492 0-9.8633 4.418-9.8633 9.8672v103.89c-28.172 10.121-49.344 33.754-56.324 62.859-6.9805 29.109 1.1719 59.773 21.688 81.566 20.516 21.797 50.633 31.789 80.109 26.582 29.473-5.207 54.344-24.914 66.148-52.418 11.805-27.508 8.9609-59.109-7.5703-84.062s-44.523-39.898-74.453-39.758c-3.2969 0-6.5938.19531-9.8672.59375v-89.387h374.92v295.98h-143.65c-.71484-1.3555-1.5078-2.6719-2.3672-3.9453-6.2812-8.3711-15.629-13.91-25.992-15.391-10.359-1.4766-20.887 1.2188-29.258 7.5l-60.383 45.285-67.684-29.598c-4.6602-2.0781-9.6953-3.1836-14.797-3.2578h-99.848c-5.4492 0-9.8672 4.418-9.8672 9.8672v137.54c0 2.6172 1.0391 5.125 2.8906 6.9766 1.8477 1.8516 4.3594 2.8906 6.9766 2.8906h138.12c2.6172 0 5.1289-1.0391 6.9766-2.8906 1.8516-1.8516 2.8906-4.3594 2.8906-6.9766v-43.41l23.48 10.457h.0039c13.039 5.5156 28.016 3.793 39.465-4.5391l78.93-59.199c8.5859-6.1602 14.344-15.504 15.98-25.945.10157-1.875.10157-3.75 0-5.625h148c2.6172 0 5.125-1.0391 6.9766-2.8906 1.8516-1.8477 2.8906-4.3594 2.8906-6.9766v-315.72c0-2.6172-1.0391-5.1289-2.8906-6.9766-1.8516-1.8516-4.3594-2.8906-6.9766-2.8906zM297.07 336.53c0 18.316-7.2773 35.883-20.227 48.836-12.953 12.953-30.52 20.23-48.836 20.23s-35.883-7.2773-48.836-20.23-20.227-30.52-20.227-48.836 7.2734-35.883 20.227-48.836c12.953-12.949 30.52-20.227 48.836-20.227s35.883 7.2773 48.836 20.227c12.949 12.953 20.227 30.52 20.227 48.836zM427.3 490.44l-78.93 59.199c-2.793 2.0898-6.0938 3.3984-9.5586 3.7969-3.4688.39844-6.9766-.12891-10.172-1.5273l-37.293-16.574-.0039-.0039c-3.0469-1.3672-6.5859-1.1016-9.3945.71093s-4.5078 4.9258-4.5156 8.2695v48.738h-118.49v-118.39H247.7354c2.7422 0 5.457.53516 7.9922 1.5781l72.91 32.461h.0039c3.2617 1.4102 7.0312.95703 9.8633-1.1836l65.121-48.641c5.6367-4.2305 13.105-5.1289 19.59-2.3594 6.4805 2.7656 10.996 8.7852 11.84 15.785s-2.1133 13.914-7.7539 18.145z"/></g></svg>